PathFileType	4	(X/Y/Z)	C:\Users\Basilio\Documents\Thesis Gigler\squatting_fais\c3dfiles\044\SJ_pre1\markers_experimental.trc
DataRate	CameraRate	NumFrames	NumMarkers	Units	OrigDataRate	OrigDataStartFrame	OrigNumFrames
200.000000	200.000000	4	63	mm	200.000000	704	1409
Frame#	Time	FHD			LBHD			RBHD			C7			T10			CLAV			LSHO			LUUPA			LMUPA			LDUPA			LLEP			LMEP			LRAD			LUL			LRFIN			RSHO			RUPA1			RMUPA			RDUPA			RLEP			RMEP			RRAD			RUL			RUFIN			LASI			RASI			USACR			LSACR			RSACR			LTHI1			LTHI2			LTHI3			LTHI4			LLFC			LMFC			LTIB1			LTIB2			LTIB3			LTIB4			LLMAL			LMMAL			LHEE			LMT1			LMT2			LMT5			RTHI			RTHI2			RTHI3			RTHI4			RLFC			RMFC			RTIB1			RTIB2			RTIB3			RTIB4			RLMAL			RMMAL			RHEE			RMT1			RMT2			RMT5			*61			*62			
		X1	Y1	Z1	X2	Y2	Z2	X3	Y3	Z3	X4	Y4	Z4	X5	Y5	Z5	X6	Y6	Z6	X7	Y7	Z7	X8	Y8	Z8	X9	Y9	Z9	X10	Y10	Z10	X11	Y11	Z11	X12	Y12	Z12	X13	Y13	Z13	X14	Y14	Z14	X15	Y15	Z15	X16	Y16	Z16	X17	Y17	Z17	X18	Y18	Z18	X19	Y19	Z19	X20	Y20	Z20	X21	Y21	Z21	X22	Y22	Z22	X23	Y23	Z23	X24	Y24	Z24	X25	Y25	Z25	X26	Y26	Z26	X27	Y27	Z27	X28	Y28	Z28	X29	Y29	Z29	X30	Y30	Z30	X31	Y31	Z31	X32	Y32	Z32	X33	Y33	Z33	X34	Y34	Z34	X35	Y35	Z35	X36	Y36	Z36	X37	Y37	Z37	X38	Y38	Z38	X39	Y39	Z39	X40	Y40	Z40	X41	Y41	Z41	X42	Y42	Z42	X43	Y43	Z43	X44	Y44	Z44	X45	Y45	Z45	X46	Y46	Z46	X47	Y47	Z47	X48	Y48	Z48	X49	Y49	Z49	X50	Y50	Z50	X51	Y51	Z51	X52	Y52	Z52	X53	Y53	Z53	X54	Y54	Z54	X55	Y55	Z55	X56	Y56	Z56	X57	Y57	Z57	X58	Y58	Z58	X59	Y59	Z59	X60	Y60	Z60	X61	Y61	Z61	X62	Y62	Z62	X63	Y63	Z63	

705	3.52	83.01431274414064	1165.902221679688	-909.0228271484377	-51.27706527709962	1157.56640625	-993.2800292968752	-104.5075378417969	1152.564331054688	-836.0960083007815	-179.2548828125	1054.718627929688	-911.8087158203127	-411.6154785156251	867.9563598632815	-893.7561645507815	-102.4477996826172	924.8806152343752	-914.6058349609377	-117.4126663208008	990.5800781250002	-1086.7041015625	-292.8141784667969	934.8211059570315	-1232.520263671875	-303.8135375976563	888.2998657226565	-1224.538940429688	-347.8064270019532	906.0430908203127	-1262.56689453125	-395.5958557128907	869.8247070312502	-1273.673461914063	-439.9458007812501	923.5081787109377	-1224.297973632813	-542.9064331054689	696.0769653320314	-1104.008178710938	-519.0462646484376	654.3746948242189	-1155.353271484375	-488.9563598632814	681.0294799804689	-1070.873413085938	-110.6856536865235	980.8892211914065	-727.3077392578126	-254.3690643310547	919.2717285156252	-564.5339965820314	-266.3035278320313	871.2116699218752	-570.2739868164064	-302.1630859375001	886.0704345703127	-524.7094116210939	-346.3925781250001	843.016784667969	-507.8582153320314	-407.7314758300782	896.6748657226565	-542.2384033203126	-518.8298339843751	677.0376586914064	-659.7866821289064	-483.8089294433595	633.9404907226564	-611.1716308593751	-461.2251892089845	666.8174438476564	-704.7407836914064	-424.4907836914064	636.1138305664064	-1013.887512207031	-414.2617492675782	616.4497680664064	-786.1716918945315	-527.5811157226564	749.2954711914064	-880.8577270507815	-557.6371459960939	730.7722167968751	-905.289245605469	-549.5089721679689	729.5925903320314	-849.600036621094	-449.5069885253907	537.5827636718751	-1120.685180664063	-366.9113769531251	530.3657226562501	-1144.040161132813	-343.0788269042969	569.0100097656251	-1131.829833984375	-334.6253967285157	480.7703857421876	-1153.465087890625	-203.1772460937501	412.369110107422	-1166.72998046875	-183.161849975586	399.1866760253907	-1053.281127929688	-251.4246826171876	257.6954040527344	-1078.267700195313	-304.7631530761719	229.9516601562501	-1144.080078125	-278.6851501464844	213.1106414794922	-1107.385009765625	-336.1474609375001	164.8447723388672	-1069.086791992188	-448.1084594726564	93.26728820800783	-1105.622924804688	-423.035369873047	101.9714660644532	-1021.179504394531	-514.0610961914064	52.22999191284181	-1055.553100585938	-296.5152893066407	60.1670608520508	-1050.165649414063	-301.7889099121094	62.17071914672853	-1096.883544921875	-340.0601806640626	42.5945053100586	-1141.334350585938	-375.0783386230469	492.0493774414064	-688.3465576171876	-307.3790283203126	505.0950622558595	-686.3679199218751	-293.5457153320313	532.6137084960939	-695.2492675781251	-247.9635467529297	444.8544006347657	-693.2329711914064	-179.2430267333985	391.3410034179689	-702.3145751953126	-186.9911651611328	384.038055419922	-818.336608886719	-200.1611633300782	265.1144104003907	-737.0711059570314	-299.1684265136719	255.6090393066407	-684.6215820312501	-272.0379943847657	224.4565124511719	-705.7230834960939	-300.9415893554688	182.5854797363282	-733.0229492187501	-448.4118957519532	98.11823272705081	-707.6383056640626	-427.9218750000001	98.5497741699219	-795.3491210937502	-514.4302978515626	53.10169982910158	-753.6325683593751	-301.3349914550782	60.46433258056642	-764.7143554687501	-297.7733764648438	59.27649688720705	-728.1785888671876	-334.8795776367188	42.39451980590821	-674.5446777343751	nan	nan	nan	nan	nan	nan	
706	3.525	82.67673492431642	1165.599853515625	-908.789733886719	-50.86857223510744	1157.77490234375	-993.5567016601565	-104.5520782470703	1152.352172851563	-836.0683593750002	-179.2732086181641	1054.589721679688	-911.8094482421877	-411.6329345703126	867.7629394531252	-893.7825927734377	-102.5989074707032	924.6004638671877	-914.608337402344	-117.1229400634766	990.0400390625002	-1086.72998046875	-292.8101806640626	934.6621704101565	-1232.645385742188	-303.9667358398438	888.131774902344	-1224.530639648438	-347.8534545898438	905.8647460937502	-1262.632934570313	-395.6933898925782	869.6596679687502	-1273.683227539063	-440.063446044922	923.2488403320315	-1224.341064453125	-542.9824829101564	695.8973999023439	-1104.008911132813	-519.1510620117189	654.1069335937501	-1155.435424804688	-488.993621826172	680.8264160156251	-1070.925415039063	-110.7155914306641	980.8347778320315	-727.2728271484376	-254.4169158935547	919.091247558594	-564.5908813476564	-266.3396301269532	870.9531250000002	-570.3125610351564	-302.1122131347657	886.018493652344	-524.6091308593751	-346.4846801757813	842.9711914062502	-508.0525207519532	-407.8441467285157	896.7456665039065	-542.2875366210939	-518.8402709960939	676.9081420898439	-659.7551269531251	-483.8117675781251	633.7322387695314	-611.3327636718751	-461.169158935547	666.5310668945314	-704.6832885742189	-424.4545898437501	636.0052490234376	-1013.899291992188	-414.3997192382814	616.1117553710939	-786.162780761719	-527.5172119140626	749.0910644531251	-880.9356079101565	-557.6940307617189	730.5283203125001	-905.265075683594	-549.5446166992189	729.3846435546876	-849.6118774414065	-449.4623107910157	537.3816528320314	-1120.724487304688	-366.9508361816407	530.2557373046876	-1144.0263671875	-343.0265197753907	568.8992309570314	-1131.854858398438	-334.5595092773438	480.6577758789064	-1153.44091796875	-203.2098083496094	412.2558593750001	-1166.668701171875	-183.134017944336	399.0620422363282	-1053.221557617188	-251.3101501464844	257.6497497558594	-1078.2783203125	-304.7454223632813	229.9647979736329	-1144.070434570313	-278.7006835937501	212.9326782226563	-1107.200927734375	-336.1420593261719	164.9156494140625	-1069.06689453125	-448.0794677734376	93.26782989501955	-1105.596435546875	-423.0091552734376	101.9568405151367	-1021.167297363281	-514.0543212890626	52.19284439086915	-1055.592651367188	-296.6418762207032	60.68785476684572	-1050.313598632813	-302.0072631835938	63.16011428833009	-1097.013549804688	-340.0479736328126	42.5404396057129	-1141.325561523438	-375.0252685546876	491.8258056640626	-688.3883056640626	-307.2647705078126	505.0775146484376	-686.4745483398439	-293.5642089843751	532.4885253906251	-695.2497558593751	-247.9749145507813	444.8926391601564	-693.2811889648439	-179.2137756347657	391.248504638672	-702.3374023437501	-186.866455078125	384.055145263672	-818.4213867187502	-200.2279357910157	265.2290649414063	-737.0639648437501	-299.1432189941407	255.5725555419922	-684.6243896484376	-272.0263061523438	224.4285278320313	-705.7749023437501	-300.9301757812501	182.5272521972657	-733.0614013671876	-448.3212280273439	98.05609130859378	-707.7134399414064	-427.9314880371095	98.55548858642581	-795.350036621094	-514.3311767578126	52.95428848266603	-753.6951293945314	-301.3619079589844	60.35182571411134	-764.7303466796876	-297.6626281738282	59.21347045898439	-728.1730346679689	-334.8305969238282	42.3885841369629	-674.5339965820314	nan	nan	nan	nan	nan	nan	
707	3.53	82.68709564208986	1165.502319335938	-908.747985839844	-51.00386047363283	1157.59423828125	-993.5017700195315	-104.6120986938477	1152.230834960938	-836.1033325195315	-179.4763641357422	1054.6923828125	-912.061218261719	-411.697235107422	867.598327636719	-893.8262939453127	-102.6320571899414	924.4505004882815	-914.6558227539065	-117.5382461547852	990.208435058594	-1086.765991210938	-292.6210937500001	934.4959716796877	-1232.765869140625	-303.9334106445313	887.9556274414065	-1224.556884765625	-348.0269470214844	905.6591796875002	-1262.6025390625	-395.7524414062501	869.4355468750002	-1273.716918945313	-439.7056884765626	922.7276000976565	-1224.393432617188	-543.0604858398439	695.7476806640626	-1104.08349609375	-519.1655273437501	654.0128784179689	-1155.373779296875	-489.0093078613282	680.6722412109376	-1070.953247070313	-110.7955551147461	980.6118164062502	-727.2879028320314	-254.4067382812501	918.9546508789065	-564.6685180664064	-266.3534545898438	870.6258544921877	-570.2304687500001	-302.1593933105469	885.8352661132815	-524.6487426757814	-346.5961608886719	842.8400878906252	-508.0621337890626	-407.8934936523439	896.505554199219	-542.2111816406251	-519.0305786132814	676.7286376953126	-659.7841186523439	-483.869842529297	633.5439453125001	-611.3936767578126	-461.195526123047	666.4048461914064	-704.7078247070314	-424.4185485839845	635.8971557617189	-1013.911010742188	-414.4782104492189	615.7402954101564	-786.3820800781252	-527.5584106445314	748.8950195312501	-880.9783325195315	-557.8093261718751	730.3195800781251	-905.2798461914065	-549.6416625976564	729.1075439453126	-849.6367797851565	-449.4859008789064	537.2145996093751	-1120.70703125	-366.9501037597657	530.1160888671876	-1143.993896484375	-343.0155029296876	568.8495483398439	-1131.893310546875	-334.4817199707032	480.6031799316407	-1153.421020507813	-203.2146301269532	412.2318115234376	-1166.635009765625	-183.0288238525391	399.0701904296876	-1053.193481445313	-251.3543701171876	257.5551452636719	-1078.2080078125	-304.6895141601563	229.9381103515626	-1144.086181640625	-278.6692504882813	212.8592071533204	-1107.204223632813	-336.4311218261719	165.1792144775391	-1068.958740234375	-448.0485229492189	93.26793670654298	-1105.590942382813	-422.9569091796876	101.934684753418	-1021.144409179688	-514.0744628906251	52.20808792114259	-1055.549438476563	-296.6196594238282	60.65518951416017	-1050.348876953125	-302.1161499023438	63.08375930786134	-1096.9853515625	-340.0037841796876	42.65603637695313	-1141.288696289063	-375.0082092285157	491.610565185547	-688.3843994140626	-307.2649230957032	505.0369262695314	-686.4984741210939	-293.5313415527344	532.4360961914064	-695.3467407226564	-247.9792785644532	444.6890563964845	-693.2351684570314	-179.2103118896485	391.2279357910157	-702.3848876953126	-186.8512725830078	383.9438781738282	-818.4748535156252	-200.1722564697266	265.1714477539063	-737.0504760742189	-299.1353149414063	255.5579528808594	-684.6322631835939	-272.0456848144532	224.4566955566407	-705.8244628906251	-300.9402770996094	182.5110321044922	-733.0962524414064	-448.3146057128907	98.02240753173831	-707.6752319335939	-427.939422607422	98.55146026611331	-795.3582153320315	-514.4512329101564	53.12014389038087	-753.6739501953126	-301.3330688476563	60.3631057739258	-764.7239990234376	-297.7058715820313	59.29751586914064	-728.1644287109376	-334.8581237792969	42.43052291870118	-674.5783081054689	nan	nan	nan	nan	nan	nan	
708	3.535	82.68128967285158	1165.353637695313	-908.8171997070315	-51.47513961791994	1157.0361328125	-993.3081665039065	-104.6785354614258	1152.062133789063	-836.0805664062502	-179.6501159667969	1054.570556640625	-912.0334472656252	-411.8294067382814	867.4880371093752	-893.8223876953127	-102.6625061035157	924.2772216796877	-914.6060180664065	-117.6258621215821	989.9970703125002	-1086.746704101563	-292.6878967285157	934.2846679687502	-1232.802124023438	-304.0769653320313	887.7153930664065	-1224.530395507813	-347.9937438964844	905.4255981445315	-1262.72705078125	-395.7790832519532	869.2214965820315	-1273.757080078125	-439.8687744140626	922.6347656250002	-1224.47802734375	-543.1085815429689	695.5955200195314	-1104.042358398438	-519.1953735351564	653.8529663085939	-1155.342651367188	-489.125946044922	680.5402832031251	-1070.966796875	-110.8513488769532	980.4992675781252	-727.2849731445314	-254.3706970214844	918.8476562500002	-564.7437133789064	-266.3922729492188	870.5540771484377	-570.2772827148439	-302.2761230468751	885.5900878906252	-524.5489501953126	-346.6296997070313	842.6669921875002	-508.0432434082032	-407.9436340332032	896.1062011718752	-542.1572265625001	-519.1779174804689	676.6342773437501	-659.8706054687501	-483.9718322753907	633.3898315429689	-611.4998779296876	-461.2549133300782	666.2380371093751	-704.7255859375001	-424.472869873047	635.7222900390626	-1013.989196777344	-414.6724243164064	615.4963378906251	-786.2429809570315	-527.6205444335939	748.6779174804689	-880.9659423828127	-557.8789672851564	730.0984497070314	-905.2967529296877	-549.7307739257814	728.9120483398439	-849.611511230469	-449.5276794433595	536.9992065429689	-1120.681274414063	-366.9938354492188	529.9906616210939	-1143.9931640625	-343.0373840332032	568.6967163085939	-1131.926147460938	-334.4566040039063	480.4689331054689	-1153.411865234375	-203.2359313964844	412.191864013672	-1166.620971679688	-182.9490814208985	399.0271301269532	-1053.19384765625	-251.304428100586	257.6464843750001	-1078.308715820313	-304.7206726074219	229.9520416259766	-1144.052856445313	-278.7581176757813	212.8184661865235	-1107.18603515625	-336.3445129394532	164.9882507324219	-1068.987915039063	-447.9797363281251	93.29850006103517	-1105.592163085938	-422.976287841797	101.9611282348633	-1021.16943359375	-514.0667724609376	52.21800994873048	-1055.55322265625	-296.5246582031251	60.58766555786134	-1050.380737304688	-302.1137084960938	63.08331680297853	-1096.98828125	-340.3531188964844	42.12285232543946	-1141.3916015625	-374.9899291992188	491.5043029785157	-688.3460693359376	-307.3461303710938	504.9049377441407	-686.5021362304689	-293.5123901367188	532.3223266601564	-695.3679809570314	-247.9678039550782	444.5725402832032	-693.2776489257814	-179.1543731689453	391.2542419433595	-702.3502197265626	-186.7761535644532	383.9333496093751	-818.5136718750002	-200.1797790527344	265.1766967773438	-737.0575561523439	-299.1694030761719	255.5162506103516	-684.6921386718751	-272.0248413085938	224.4769134521485	-705.8093872070314	-300.9319152832032	182.5293426513672	-733.0834960937501	-448.3077087402345	98.07537078857425	-707.6853027343751	-427.9133605957032	98.54253387451175	-795.392761230469	-514.4644775390626	53.11944961547853	-753.6519775390626	-301.3332214355469	60.36235809326173	-764.7502441406251	-297.7655639648438	59.24293136596681	-728.1568603515626	-334.8720092773438	42.42319869995118	-674.5069580078126	nan	nan	nan	nan	nan	nan	
